<svg width="310" height="40" viewBox="0 0 310 40" fill="none" xmlns="http://www.w3.org/2000/svg">
<g clip-path="url(#clip0_206_5)">
<path d="M30.1863 19.1684C32.4026 19.9372 34.139 21.146 35.3956 22.7936C36.6516 24.4046 37.2793 26.3635 37.2793 28.6698C37.2793 32.0386 35.9124 34.638 33.1787 36.4693C30.445 38.2999 26.4916 39.215 21.3193 39.215H0.371094V0.769531H20.2111C25.1617 0.769531 28.9297 1.68515 31.5162 3.51583C34.1021 5.30981 35.3956 7.74487 35.3956 10.8205C35.3956 12.6512 34.9333 14.2988 34.01 15.7635C33.123 17.1914 31.8488 18.3262 30.1863 19.1684ZM11.2332 8.62378V16.038H18.7698C22.4644 16.038 24.3117 14.7931 24.3117 12.3032C24.3117 9.85008 22.4644 8.62378 18.7698 8.62378H11.2332ZM20.4323 31.3613C24.2747 31.3613 26.196 30.0616 26.196 27.4616C26.196 24.8621 24.2747 23.5624 20.4323 23.5624H11.2332V31.3613H20.4323Z" fill="white"/>
<path d="M71.1523 30.8123V39.215H40.0078V0.769531H70.4319V9.17282H50.8694V15.6534H68.1042V23.7821H50.8694V30.8123H71.1523Z" fill="white"/>
<path d="M84.3892 9.39254H72.4746V0.769531H107.221V9.39254H95.3622V39.215H84.3892V9.39254Z" fill="white"/>
<path d="M159.944 28.9997H153.959V39.215H142.986V0.769531H160.72C164.23 0.769531 167.278 1.35528 169.864 2.52734C172.45 3.66213 174.445 5.30981 175.849 7.47035C177.253 9.59364 177.955 12.1021 177.955 14.9942C177.955 17.7772 177.29 20.2123 175.96 22.2988C174.667 24.3493 172.801 25.9608 170.363 27.1323L178.731 39.215H166.982L159.944 28.9997ZM166.871 14.9942C166.871 13.2002 166.299 11.809 165.154 10.8205C164.008 9.832 162.308 9.3372 160.055 9.3372H153.959V20.5964H160.055C162.308 20.5964 164.008 20.1202 165.154 19.1684C166.299 18.1799 166.871 16.7887 166.871 14.9942Z" fill="white"/>
<path d="M181.791 0.769531H192.764V39.215H181.791V0.769531Z" fill="white"/>
<path d="M223.422 19.1677H233.12V35.0953C230.903 36.6696 228.354 37.8778 225.472 38.72C222.59 39.5622 219.709 39.983 216.827 39.983C212.763 39.983 209.105 39.1408 205.854 37.457C202.603 35.7359 200.054 33.3562 198.207 30.3167C196.359 27.2778 195.436 23.8362 195.436 19.9918C195.436 16.1468 196.359 12.7052 198.207 9.6663C200.054 6.6274 202.622 4.26575 205.91 2.58137C209.198 0.860274 212.911 0 217.049 0C220.669 0 223.921 0.604384 226.802 1.8126C229.684 3.02082 232.086 4.76 234.006 7.03014L227.024 13.291C224.401 10.4351 221.26 9.00712 217.603 9.00712C214.278 9.00712 211.599 10.0142 209.568 12.0279C207.535 14.0049 206.519 16.6597 206.519 19.9918C206.519 22.1151 206.981 24.0192 207.905 25.7036C208.828 27.3512 210.121 28.651 211.784 29.6027C213.446 30.5184 215.349 30.9759 217.492 30.9759C219.598 30.9759 221.574 30.5551 223.422 29.7129V19.1677Z" fill="white"/>
<path d="M273.383 0.769531V39.215H262.41V24.2216H247.448V39.215H236.475V0.769531H247.448V15.2139H262.41V0.769531H273.383Z" fill="white"/>
<path d="M287.163 9.39254H275.248V0.769531H309.995V9.39254H298.135V39.215H287.163V9.39254Z" fill="white"/>
<path d="M125.07 0.546875C130.171 0.546875 134.306 4.64496 134.306 9.7003C134.306 14.7556 130.171 18.8537 125.07 18.8537C119.969 18.8537 115.834 14.7556 115.834 9.7003C115.834 4.64496 119.969 0.546875 125.07 0.546875ZM125.317 5.80496C124.615 5.80496 123.957 5.99235 123.389 6.31729C122.16 6.95455 121.319 8.22961 121.319 9.7003C121.319 11.8077 123.043 13.5156 125.169 13.5156C125.547 13.5156 125.911 13.4619 126.255 13.3617C127.934 12.9447 129.178 11.4373 129.178 9.64057C129.178 7.52222 127.449 5.80496 125.317 5.80496Z" fill="url(#paint0_linear_206_5)"/>
<path d="M130.402 20.2227L134.681 24.4638L129.261 29.8347L134.682 35.2068L130.403 39.4473L124.982 34.0753L119.562 39.4473L115.283 35.2068L120.703 29.8347L115.283 24.4638L119.563 20.2227L124.982 25.5936L130.402 20.2227Z" fill="url(#paint1_linear_206_5)"/>
</g>
<defs>
<linearGradient id="paint0_linear_206_5" x1="1472.5" y1="0.49208" x2="1472.5" y2="1951.01" gradientUnits="userSpaceOnUse">
<stop stop-color="#FF378B"/>
<stop offset="1" stop-color="#EB00FF"/>
</linearGradient>
<linearGradient id="paint1_linear_206_5" x1="2055.16" y1="981.456" x2="115.283" y2="981.456" gradientUnits="userSpaceOnUse">
<stop stop-color="#00FF47"/>
<stop offset="1" stop-color="#00F0FF"/>
</linearGradient>
<clipPath id="clip0_206_5">
<rect width="310" height="40" fill="white"/>
</clipPath>
</defs>
</svg>
